####
#
# OBJ File Generated by Meshlab
#
####
# Object col-kuka-link3.obj
#
# Vertices: 166
# Faces: 300
#
####
mtllib ./col-kuka-link3.obj.mtl

vn -0.869788 -0.124438 -0.477478
v -61.221584 -2.323804 -9.500200 0.752941 0.752941 0.752941
vn -0.320300 -0.660767 -0.678818
v -26.345940 -54.347256 -9.500046 0.752941 0.752941 0.752941
vn -0.680115 -0.582378 -0.445286
v -48.050533 -36.980831 -9.500050 0.752941 0.752941 0.752941
vn -0.805721 0.098962 0.583969
v -60.939102 7.134832 7.501292 0.752941 0.752941 0.752941
vn -0.782214 -0.423351 0.457073
v -51.440083 -32.638081 7.499855 0.752941 0.752941 0.752941
vn 0.041704 -0.931178 -0.362172
v 0.736137 -60.629581 -9.500081 0.752941 0.752941 0.752941
vn 0.481935 -0.694900 -0.533717
v 36.104202 -49.497253 -9.500208 0.752941 0.752941 0.752941
vn 0.238237 -0.840448 0.486713
v 16.870419 -58.235382 7.499897 0.752941 0.752941 0.752941
vn -0.347718 -0.826804 0.442140
v -20.186583 -57.842018 7.499845 0.752941 0.752941 0.752941
vn 0.684302 -0.575871 0.447328
v 45.714035 -40.268353 7.499840 0.752941 0.752941 0.752941
vn 0.749890 0.404920 -0.523168
v 52.800049 28.940844 -9.500006 0.752941 0.752941 0.752941
vn 0.807033 0.232409 0.542848
v 59.328056 11.559965 7.500596 0.752941 0.752941 0.752941
vn 0.932407 0.054702 -0.357245
v 59.797508 8.483853 -9.500025 0.752941 0.752941 0.752941
vn 0.843190 -0.168623 0.510486
v 58.895683 -13.141824 7.499030 0.752941 0.752941 0.752941
vn 0.755386 -0.327291 -0.567690
v 57.506786 -19.220453 -9.500058 0.752941 0.752941 0.752941
vn 0.612866 0.601314 0.512657
v 43.915825 42.714993 7.499779 0.752941 0.752941 0.752941
vn -0.157379 0.837692 -0.522976
v -10.060094 59.793339 -9.500058 0.752941 0.752941 0.752941
vn 0.177741 0.709852 -0.681555
v 14.628085 58.407600 -9.500017 0.752941 0.752941 0.752941
vn 0.184410 0.876845 0.443999
v 8.629313 60.230160 7.498613 0.752941 0.752941 0.752941
vn 0.492993 0.770814 -0.403489
v 37.050560 47.997227 -9.500067 0.752941 0.752941 0.752941
vn -0.311873 0.747876 0.586018
v -24.981161 55.316074 7.500860 0.752941 0.752941 0.752941
vn -0.785305 0.363028 -0.501504
v -53.488472 27.647854 -9.500013 0.752941 0.752941 0.752941
vn -0.724833 0.549290 0.415809
v -46.805645 38.087112 7.499037 0.752941 0.752941 0.752941
vn -0.557006 0.736143 -0.384497
v -38.207191 47.081440 -9.500055 0.752941 0.752941 0.752941
vn 0.000000 0.000000 0.000000
v -60.047169 -185.259125 -15.092001 0.752941 0.752941 0.752941
vn 0.992278 0.000000 0.124035
v -59.149685 -184.748550 9.404747 0.752941 0.752941 0.752941
vn 0.000000 -0.847998 0.529999
v -59.483776 -171.500000 9.700000 0.752941 0.752941 0.752941
vn 1.000000 0.000000 0.000000
v -58.952831 -171.740875 -15.092001 0.752941 0.752941 0.752941
vn -0.998053 0.000000 0.062378
v -60.054630 -176.071609 2.974251 0.752941 0.752941 0.752941
vn 0.000000 0.000000 0.000000
v 60.047169 -125.740875 -15.092001 0.752941 0.752941 0.752941
vn -0.992278 0.000000 0.124035
v 59.149685 -126.251450 9.404747 0.752941 0.752941 0.752941
vn 0.000000 0.847998 0.529999
v 59.483776 -139.500000 9.700000 0.752941 0.752941 0.752941
vn -1.000000 0.000000 0.000000
v 58.952831 -139.259125 -15.092001 0.752941 0.752941 0.752941
vn 0.998053 0.000000 0.062378
v 60.054630 -134.928391 2.974251 0.752941 0.752941 0.752941
vn 0.000000 0.000000 0.000000
v -59.500000 -156.167007 -15.300001 0.752941 0.752941 0.752941
vn 0.000000 0.000000 0.000000
v -59.564808 -158.525955 6.436889 0.752941 0.752941 0.752941
vn 0.000000 0.000000 0.000000
v -59.500000 -170.152054 -15.076077 0.752941 0.752941 0.752941
vn 0.000000 0.000000 0.000000
v 59.500000 -154.832993 -15.300001 0.752941 0.752941 0.752941
vn 0.000000 0.000000 0.000000
v 59.564808 -152.474045 6.436889 0.752941 0.752941 0.752941
vn 0.000000 0.000000 0.000000
v 59.500000 -140.847946 -15.076077 0.752941 0.752941 0.752941
vn 0.000000 0.000000 0.000000
v 60.055470 -169.930634 9.535479 0.752941 0.752941 0.752941
vn 0.999969 0.007812 0.000000
v 59.509998 -156.167007 -15.300001 0.752941 0.752941 0.752941
vn 0.000000 0.000000 0.000000
v 59.352413 -166.771439 -14.326543 0.752941 0.752941 0.752941
vn 0.000000 0.000000 0.000000
v 59.304707 -157.000992 9.216955 0.752941 0.752941 0.752941
vn 0.000000 0.000000 0.000000
v -60.055470 -141.069366 9.535479 0.752941 0.752941 0.752941
vn -0.999969 -0.007812 0.000000
v -59.509998 -154.832993 -15.300001 0.752941 0.752941 0.752941
vn 0.000000 0.000000 0.000000
v -59.352413 -144.228561 -14.326543 0.752941 0.752941 0.752941
vn 0.000000 0.000000 0.000000
v -59.304707 -153.999008 9.216955 0.752941 0.752941 0.752941
vn 0.000000 0.000000 0.000000
v -59.500000 -139.485046 -15.076076 0.752941 0.752941 0.752941
vn 0.000000 0.000000 0.000000
v -59.500000 -125.500000 -15.300001 0.752941 0.752941 0.752941
vn 0.000000 0.000000 0.000000
v -59.564808 -127.858955 6.436879 0.752941 0.752941 0.752941
vn 0.000000 0.000000 0.000000
v 59.500000 -171.514954 -15.076074 0.752941 0.752941 0.752941
vn 0.000000 0.000000 0.000000
v 59.500000 -185.500000 -15.300001 0.752941 0.752941 0.752941
vn 0.000000 0.000000 0.000000
v 59.564808 -183.141052 6.436879 0.752941 0.752941 0.752941
vn 0.811603 0.343794 -0.472341
v -46.168205 -22.227432 -9.500000 0.752941 0.752941 0.752941
vn 0.647775 0.251422 0.719148
v -47.169445 -18.361282 7.500000 0.752941 0.752941 0.752941
vn -0.122961 0.771085 -0.624746
v 2.867434 -50.822456 -9.500000 0.752941 0.752941 0.752941
vn 0.405468 0.765304 -0.499906
v -24.295189 -44.138458 -9.500000 0.752941 0.752941 0.752941
vn 0.537213 0.640250 0.549074
v -32.288845 -38.676540 7.500000 0.752941 0.752941 0.752941
vn 0.108807 0.824281 0.555627
v -3.922967 -51.089859 7.500000 0.752941 0.752941 0.752941
vn -0.574267 0.587670 -0.569966
v 33.928791 -37.946423 -9.500000 0.752941 0.752941 0.752941
vn -0.363211 0.772690 0.520603
v 25.840017 -43.251202 7.500000 0.752941 0.752941 0.752941
vn -0.755745 0.417597 0.504443
v 42.047882 -27.755981 7.500000 0.752941 0.752941 0.752941
vn -0.700562 -0.485961 -0.522546
v 41.039898 29.225819 -9.500000 0.752941 0.752941 0.752941
vn -0.762155 -0.356143 0.540631
v 43.251274 25.840857 7.500000 0.752941 0.752941 0.752941
vn -0.858357 0.059095 -0.509639
v 51.545956 -2.910987 -9.500000 0.752941 0.752941 0.752941
vn -0.747451 0.016761 0.664105
v 50.891861 -1.065191 7.500000 0.752941 0.752941 0.752941
vn -0.416291 -0.776390 0.473202
v 25.432020 43.764477 7.500000 0.752941 0.752941 0.752941
vn 0.499062 -0.598301 -0.626876
v -33.928791 37.946423 -9.500000 0.752941 0.752941 0.752941
vn -0.320233 -0.651053 -0.688172
v 24.295189 44.138458 -9.500000 0.752941 0.752941 0.752941
vn 0.035290 -0.902827 -0.428554
v -2.867434 50.822456 -9.500000 0.752941 0.752941 0.752941
vn -0.031951 -0.701919 0.711540
v 1.131289 50.370041 7.500000 0.752941 0.752941 0.752941
vn 0.389958 -0.858738 0.332418
v -20.835943 45.872147 7.500000 0.752941 0.752941 0.752941
vn 0.647566 -0.437914 0.623610
v -40.642025 30.171446 7.500000 0.752941 0.752941 0.752941
vn 0.928026 -0.037796 0.370592
v -49.926769 6.762982 7.500000 0.752941 0.752941 0.752941
vn 0.802746 -0.206721 -0.559344
v -49.356941 11.223824 -9.500000 0.752941 0.752941 0.752941
vn -0.351794 0.160414 0.922230
v -25.109264 -161.645859 53.814686 0.752941 0.752941 0.752941
vn 0.049792 -0.179377 0.982520
v 6.341172 -191.499466 58.234604 0.752941 0.752941 0.752941
vn -0.980783 -0.163821 -0.105955
v -60.522858 -191.496857 -8.012794 0.752941 0.752941 0.752941
vn 0.888273 -0.177137 -0.423785
v 55.443623 -191.499863 -25.649229 0.752941 0.752941 0.752941
vn 0.956011 -0.090015 0.279178
v 57.855797 -191.498688 15.113564 0.752941 0.752941 0.752941
vn -0.709811 -0.161396 0.685653
v -45.257851 -191.472610 37.814735 0.752941 0.752941 0.752941
vn -0.383262 -0.228371 -0.894962
v -21.868931 -191.500214 -59.324856 0.752941 0.752941 0.752941
vn -0.002941 0.090009 0.995937
v 7.558636 -61.818024 -16.596048 0.752941 0.752941 0.752941
vn -0.325812 -0.465689 0.822788
v -24.516531 -191.500153 53.398609 0.752941 0.752941 0.752941
vn 0.722082 -0.156281 0.673924
v 42.699093 -191.335358 41.305370 0.752941 0.752941 0.752941
vn 0.165933 -0.238895 -0.956763
v 12.346676 -191.498901 -61.030193 0.752941 0.752941 0.752941
vn 0.648938 -0.218652 -0.728746
v 40.371292 -191.499985 -47.687328 0.752941 0.752941 0.752941
vn 0.840337 -0.059756 -0.538761
v 51.732357 -129.377792 -35.813381 0.752941 0.752941 0.752941
vn -0.655139 -0.075827 -0.751694
v -42.400372 -146.567245 -46.212833 0.752941 0.752941 0.752941
vn -0.475667 -0.241753 -0.845752
v -31.548426 -99.451004 -61.902767 0.752941 0.752941 0.752941
vn -0.159598 0.013373 0.987092
v -33.900635 -50.473549 -17.805311 0.752941 0.752941 0.752941
vn -0.210892 0.582248 0.785183
v -18.299139 57.867363 -9.500009 0.752941 0.752941 0.752941
vn -0.663691 0.707622 -0.242457
v -33.718113 47.574280 -60.487461 0.752941 0.752941 0.752941
vn 0.363525 0.474485 -0.801695
v 22.615156 34.745281 -85.251312 0.752941 0.752941 0.752941
vn -0.263748 0.645522 -0.716756
v -13.086448 49.541000 -76.707207 0.752941 0.752941 0.752941
vn 0.139941 0.292967 0.945826
v 15.818188 59.243942 -9.499962 0.752941 0.752941 0.752941
vn 0.084605 0.972561 -0.216718
v 2.878062 62.123116 -54.085007 0.752941 0.752941 0.752941
vn -0.073118 -0.067316 0.995049
v -33.272949 -49.451000 -9.500000 0.752941 0.752941 0.752941
vn -0.794300 0.003335 0.607516
v -62.120655 -2.929465 -9.500746 0.752941 0.752941 0.752941
vn 0.710891 0.146128 -0.687954
v 43.103317 5.234354 -80.477829 0.752941 0.752941 0.752941
vn -0.651923 -0.197796 -0.732034
v -48.368374 -39.913319 -72.994797 0.752941 0.752941 0.752941
vn -0.643568 0.154204 -0.749694
v -44.191883 6.028111 -79.941536 0.752941 0.752941 0.752941
vn 0.954029 0.025400 0.298635
v 60.281197 -31.016085 -40.008938 0.752941 0.752941 0.752941
vn 0.252033 -0.253298 -0.933980
v 14.303969 -95.812675 -70.340515 0.752941 0.752941 0.752941
vn 0.166014 -0.093856 0.981647
v 42.394123 -43.413601 -9.508506 0.752941 0.752941 0.752941
vn 0.101024 -0.124858 -0.987018
v 9.844739 -24.059416 -96.280403 0.752941 0.752941 0.752941
vn 0.647833 0.400560 0.647969
v 56.514984 22.546232 -9.499796 0.752941 0.752941 0.752941
vn 0.531994 -0.219431 -0.817822
v 42.304882 -45.883472 -76.686195 0.752941 0.752941 0.752941
vn -0.324714 -0.200364 -0.924346
v -20.963018 -40.663933 -88.976555 0.752941 0.752941 0.752941
vn -0.119368 -0.277629 -0.953244
v -11.188184 -94.359619 -71.154449 0.752941 0.752941 0.752941
vn 0.938041 -0.058606 -0.341533
v 58.265587 -34.485962 -59.212772 0.752941 0.752941 0.752941
vn -0.965851 -0.036220 -0.256556
v -59.582340 -40.870991 -53.413208 0.752941 0.752941 0.752941
vn 0.407955 -0.081864 -0.909325
v 27.620640 -153.571976 -56.446465 0.752941 0.752941 0.752941
vn 0.584610 -0.165188 -0.794320
v 36.960743 -114.132248 -56.003014 0.752941 0.752941 0.752941
vn 0.731332 -0.231066 -0.641688
v 45.656410 -83.203300 -57.806332 0.752941 0.752941 0.752941
vn 0.264738 0.354080 0.896962
v 41.058300 -71.065063 -12.449235 0.752941 0.752941 0.752941
vn -0.005606 -0.095690 0.995395
v 1.502195 -58.323128 -9.500000 0.752941 0.752941 0.752941
vn -0.778590 -0.199855 -0.594858
v -49.502407 -98.245926 -48.256393 0.752941 0.752941 0.752941
vn -0.887137 0.187432 0.421731
v -59.173050 -63.826050 -31.120731 0.752941 0.752941 0.752941
vn -0.137587 -0.102760 -0.985145
v -9.792002 -149.495056 -62.705059 0.752941 0.752941 0.752941
vn 0.959218 -0.080331 -0.271013
v 59.659275 -118.482964 -17.990583 0.752941 0.752941 0.752941
vn 0.413952 -0.204461 0.887039
v 32.658840 -191.500046 48.785492 0.752941 0.752941 0.752941
vn -0.953115 -0.134026 0.271311
v -55.958881 -191.499283 20.708410 0.752941 0.752941 0.752941
vn 0.333365 0.307147 0.891363
v 20.551414 -146.714905 54.267433 0.752941 0.752941 0.752941
vn -0.108311 0.636942 0.763265
v -11.089877 -127.525909 45.714478 0.752941 0.752941 0.752941
vn 0.772361 0.181148 0.608805
v 52.901115 -147.058777 26.287174 0.752941 0.752941 0.752941
vn -0.993557 0.028128 0.109791
v -60.002121 -114.852951 -4.718134 0.752941 0.752941 0.752941
vn 0.951370 0.129386 0.279560
v 59.336754 -110.391808 -1.122209 0.752941 0.752941 0.752941
vn -0.333619 0.583768 0.740211
v -45.935513 -101.012558 9.169658 0.752941 0.752941 0.752941
vn -0.743150 0.235899 0.626163
v -52.454399 -140.886520 26.459948 0.752941 0.752941 0.752941
vn 0.258511 0.628923 0.733231
v 46.285343 -97.429359 5.153684 0.752941 0.752941 0.752941
vn 0.982584 -0.145425 -0.115671
v 60.090466 -191.497116 -6.356274 0.752941 0.752941 0.752941
vn -0.813761 -0.192758 -0.548303
v -48.365372 -191.499863 -38.120392 0.752941 0.752941 0.752941
vn 0.001136 0.628236 0.778022
v -11.597170 -87.706375 -4.511585 0.752941 0.752941 0.752941
vn -0.935249 -0.069571 -0.347086
v -57.927753 -129.187546 -21.485392 0.752941 0.752941 0.752941
vn -0.277770 0.339626 0.898609
v -47.051552 -64.901253 -16.535547 0.752941 0.752941 0.752941
vn -0.941830 -0.119080 0.314288
v -58.026836 -21.402908 -23.125330 0.752941 0.752941 0.752941
vn -0.948995 0.254967 -0.185476
v -58.279057 10.328450 -42.522541 0.752941 0.752941 0.752941
vn -0.164878 0.205190 -0.964734
v -8.883606 21.562710 -93.915741 0.752941 0.752941 0.752941
vn 0.961749 -0.081365 0.261569
v 59.620056 -13.029024 -9.536292 0.752941 0.752941 0.752941
vn 0.958471 0.207650 -0.195485
v 56.846992 13.354867 -44.990726 0.752941 0.752941 0.752941
vn -0.606560 0.441224 0.661367
v -47.355515 38.446579 -9.501578 0.752941 0.752941 0.752941
vn 0.693798 0.688334 -0.211756
v 39.996971 43.593132 -52.793026 0.752941 0.752941 0.752941
vn -0.896034 -0.438701 -0.068289
v -50.651978 -191.503464 -5.919173 0.752941 0.752941 0.752941
vn -0.400258 -0.915818 -0.032715
v -49.094330 -208.500000 -12.480579 0.752941 0.752941 0.752941
vn 0.765506 -0.561941 0.313406
v 48.055847 -191.500000 15.781846 0.752941 0.752941 0.752941
vn 0.778762 -0.585785 -0.224468
v 47.911289 -191.545288 -17.837341 0.752941 0.752941 0.752941
vn 0.954470 -0.295085 -0.043727
v 50.342113 -208.500000 0.022249 0.752941 0.752941 0.752941
vn 0.479686 -0.847367 0.227752
v 44.479240 -208.500000 21.664671 0.752941 0.752941 0.752941
vn 0.112884 -0.986764 0.116424
v 33.733730 -208.500000 35.002499 0.752941 0.752941 0.752941
vn 0.399192 -0.879029 -0.260681
v 40.619976 -208.500000 -31.806627 0.752941 0.752941 0.752941
vn 0.102063 -0.949785 -0.295788
v 18.655834 -208.500000 -49.361099 0.752941 0.752941 0.752941
vn -0.041541 -0.988956 -0.142268
v -17.781862 -208.500000 -50.055840 0.752941 0.752941 0.752941
vn 0.060171 -0.966109 0.251023
v 14.718126 -208.500000 46.185032 0.752941 0.752941 0.752941
vn -0.082947 -0.976244 0.200168
v -16.060066 -208.500000 46.658314 0.752941 0.752941 0.752941
vn -0.347757 -0.903093 -0.251967
v -41.549793 -208.500000 -30.496183 0.752941 0.752941 0.752941
vn -0.782632 -0.481495 0.394524
v -45.762875 -208.500000 21.050303 0.752941 0.752941 0.752941
vn -0.705724 -0.640312 0.303238
v -45.531681 -191.500000 19.141439 0.752941 0.752941 0.752941
vn -0.534776 -0.485125 0.691859
v -32.223892 -191.500000 37.034622 0.752941 0.752941 0.752941
vn 0.045112 -0.506308 -0.861172
v 3.741249 -191.500000 -52.765316 0.752941 0.752941 0.752941
vn 0.534199 -0.510632 -0.673711
v 32.223892 -191.500000 -41.034622 0.752941 0.752941 0.752941
vn -0.445671 -0.530083 -0.721380
v -26.201250 -191.500000 -45.307941 0.752941 0.752941 0.752941
vn 0.422925 -0.604971 0.674644
v 26.201250 -191.500000 41.307941 0.752941 0.752941 0.752941
vn -0.604918 -0.702207 -0.375472
v -42.125175 -191.500000 -29.305035 0.752941 0.752941 0.752941
vn -0.036565 -0.511544 0.858479
v -3.741243 -191.500000 48.765316 0.752941 0.752941 0.752941
# 166 vertices, 0 vertices normals


usemtl material_0
f 1//1 4//4 22//22
f 23//23 22//22 4//4
f 24//24 23//23 21//21
f 22//22 23//23 24//24
f 21//21 17//17 24//24
f 19//19 17//17 21//21
f 20//20 19//19 16//16
f 18//18 19//19 20//20
f 17//17 19//19 18//18
f 11//11 16//16 12//12
f 14//14 13//13 12//12
f 13//13 14//14 15//15
f 11//11 12//12 13//13
f 20//20 16//16 11//11
f 15//15 14//14 10//10
f 10//10 7//7 15//15
f 6//6 8//8 9//9
f 7//7 8//8 6//6
f 9//9 2//2 6//6
f 3//3 9//9 5//5
f 1//1 5//5 4//4
f 5//5 1//1 3//3
f 9//9 3//3 2//2
f 76//76 74//74 75//75
f 69//69 74//74 76//76
f 74//74 69//69 73//73
f 71//71 68//68 72//72
f 70//70 68//68 71//71
f 73//73 71//71 72//72
f 71//71 73//73 69//69
f 64//64 68//68 70//70
f 65//65 66//66 67//67
f 65//65 64//64 66//66
f 64//64 65//65 68//68
f 66//66 63//63 67//67
f 61//61 63//63 66//66
f 8//8 7//7 10//10
f 57//57 62//62 61//61
f 57//57 60//60 62//62
f 63//63 61//61 62//62
f 55//55 59//59 58//58
f 55//55 56//56 59//59
f 60//60 58//58 59//59
f 58//58 60//60 57//57
f 75//75 55//55 76//76
f 56//56 55//55 75//75
f 54//54 53//53 52//52
f 54//54 52//52 53//53
f 51//51 50//50 49//49
f 51//51 49//49 50//50
f 45//45 47//47 48//48
f 47//47 46//46 48//48
f 48//48 46//46 47//47
f 47//47 45//45 48//48
f 41//41 43//43 44//44
f 43//43 42//42 44//44
f 44//44 42//42 43//43
f 43//43 41//41 44//44
f 39//39 40//40 38//38
f 39//39 38//38 40//40
f 36//36 37//37 35//35
f 36//36 35//35 37//37
f 30//30 33//33 34//34
f 30//30 31//31 33//33
f 31//31 34//34 32//32
f 33//33 31//31 30//30
f 34//34 33//33 32//32
f 25//25 28//28 29//29
f 25//25 26//26 28//28
f 26//26 29//29 27//27
f 28//28 26//26 25//25
f 29//29 28//28 27//27
f 27//27 29//29 26//26
f 28//28 29//29 27//27
f 25//25 29//29 28//28
f 32//32 34//34 31//31
f 33//33 34//34 32//32
f 30//30 34//34 33//33
f 74//74 4//4 75//75
f 23//23 4//4 74//74
f 74//74 21//21 23//23
f 73//73 21//21 74//74
f 72//72 21//21 73//73
f 19//19 21//21 72//72
f 68//68 19//19 72//72
f 16//16 19//19 68//68
f 65//65 16//16 68//68
f 12//12 16//16 65//65
f 67//67 12//12 65//65
f 14//14 12//12 67//67
f 63//63 14//14 67//67
f 10//10 14//14 63//63
f 62//62 10//10 63//63
f 8//8 10//10 62//62
f 60//60 8//8 62//62
f 9//9 8//8 60//60
f 59//59 9//9 60//60
f 5//5 9//9 59//59
f 56//56 5//5 59//59
f 4//4 5//5 56//56
f 56//56 75//75 4//4
f 55//55 1//1 76//76
f 3//3 1//1 55//55
f 58//58 3//3 55//55
f 2//2 3//3 58//58
f 57//57 2//2 58//58
f 6//6 2//2 57//57
f 7//7 6//6 57//57
f 61//61 7//7 57//57
f 15//15 7//7 61//61
f 66//66 15//15 61//61
f 13//13 15//15 66//66
f 11//11 13//13 66//66
f 64//64 11//11 66//66
f 20//20 11//11 64//64
f 70//70 20//20 64//64
f 18//18 20//20 70//70
f 71//71 18//18 70//70
f 17//17 18//18 71//71
f 69//69 17//17 71//71
f 24//24 17//17 69//69
f 22//22 24//24 69//69
f 76//76 22//22 69//69
f 1//1 22//22 76//76
f 95//95 144//144 101//101
f 94//94 96//96 103//103
f 140//140 103//103 96//96
f 139//139 94//94 103//103
f 94//94 139//139 143//143
f 142//142 144//144 108//108
f 142//142 108//108 141//141
f 142//142 101//101 144//144
f 140//140 95//95 107//107
f 101//101 107//107 95//95
f 112//112 101//101 142//142
f 100//100 139//139 138//138
f 140//140 96//96 95//95
f 77//77 85//85 78//78
f 125//125 77//77 78//78
f 126//126 77//77 125//125
f 130//130 135//135 137//137
f 137//137 120//120 130//130
f 136//136 79//79 128//128
f 80//80 89//89 133//133
f 89//89 122//122 133//133
f 79//79 136//136 134//134
f 136//136 128//128 113//113
f 90//90 134//134 136//136
f 117//117 84//84 135//135
f 132//132 135//135 126//126
f 132//132 127//127 129//129
f 131//131 130//130 120//120
f 135//135 130//130 126//126
f 133//133 122//122 129//129
f 120//120 128//128 131//131
f 130//130 131//131 126//126
f 126//126 125//125 132//132
f 128//128 79//79 124//124
f 124//124 131//131 128//128
f 77//77 126//126 131//131
f 82//82 77//77 131//131
f 127//127 125//125 86//86
f 127//127 86//86 81//81
f 124//124 82//82 131//131
f 88//88 89//89 80//80
f 122//122 89//89 116//116
f 114//114 115//115 89//89
f 122//122 116//116 112//112
f 137//137 135//135 92//92
f 136//136 119//119 90//90
f 119//119 102//102 91//91
f 121//121 91//91 111//111
f 138//138 120//120 137//137
f 92//92 118//118 99//99
f 118//118 92//92 84//84
f 104//104 106//106 117//117
f 112//112 104//104 129//129
f 112//112 116//116 109//109
f 120//120 138//138 113//113
f 112//112 109//109 101//101
f 113//113 138//138 139//139
f 110//110 111//111 91//91
f 121//121 111//111 105//105
f 109//109 105//105 107//107
f 104//104 141//141 106//106
f 99//99 138//138 92//92
f 104//104 112//112 142//142
f 110//110 102//102 103//103
f 108//108 144//144 97//97
f 142//142 141//141 104//104
f 140//140 107//107 103//103
f 110//110 103//103 107//107
f 118//118 84//84 106//106
f 114//114 87//87 121//121
f 84//84 117//117 106//106
f 105//105 114//114 121//121
f 105//105 109//109 116//116
f 115//115 114//114 105//105
f 116//116 115//115 105//105
f 107//107 111//111 110//110
f 107//107 101//101 109//109
f 111//111 107//107 105//105
f 103//103 102//102 113//113
f 113//113 139//139 103//103
f 100//100 138//138 99//99
f 97//97 98//98 93//93
f 98//98 96//96 94//94
f 144//144 95//95 98//98
f 96//96 98//98 95//95
f 97//97 144//144 98//98
f 94//94 93//93 98//98
f 137//137 92//92 138//138
f 91//91 102//102 110//110
f 121//121 87//87 83//83
f 87//87 114//114 88//88
f 115//115 116//116 89//89
f 112//112 129//129 122//122
f 117//117 129//129 104//104
f 84//84 92//92 135//135
f 119//119 113//113 102//102
f 120//120 113//113 128//128
f 113//113 119//119 136//136
f 90//90 83//83 134//134
f 121//121 83//83 90//90
f 119//119 91//91 90//90
f 91//91 121//121 90//90
f 88//88 114//114 89//89
f 125//125 78//78 123//123
f 85//85 77//77 82//82
f 123//123 86//86 125//125
f 133//133 129//129 81//81
f 127//127 132//132 125//125
f 129//129 127//127 81//81
f 135//135 132//132 117//117
f 129//129 117//117 132//132
f 94//94 143//143 93//93
f 139//139 100//100 143//143
f 155//155 166//166 156//156
f 163//163 157//157 165//165
f 147//147 151//151 150//150
f 164//164 151//151 147//147
f 152//152 162//162 148//148
f 163//163 154//154 157//157
f 161//161 154//154 163//163
f 162//162 153//153 161//161
f 162//162 152//152 153//153
f 154//154 161//161 153//153
f 164//164 155//155 151//151
f 160//160 156//156 166//166
f 158//158 160//160 159//159
f 155//155 164//164 166//166
f 156//156 160//160 158//158
f 158//158 159//159 145//145
f 147//147 150//150 149//149
f 146//146 158//158 145//145
f 156//156 158//158 146//146
f 157//157 156//156 146//146
f 154//154 156//156 157//157
f 154//154 155//155 156//156
f 151//151 155//155 154//154
f 153//153 151//151 154//154
f 152//152 151//151 153//153
f 152//152 150//150 151//151
f 149//149 150//150 152//152
f 148//148 149//149 152//152
f 149//149 148//148 147//147
f 157//157 145//145 165//165
f 146//146 145//145 157//157
f 108//108 106//106 141//141
f 97//97 106//106 108//108
f 118//118 106//106 97//97
f 99//99 118//118 97//97
f 93//93 99//99 97//97
f 143//143 99//99 93//93
f 100//100 99//99 143//143
f 85//85 166//166 78//78
f 85//85 160//160 166//166
f 82//82 160//160 85//85
f 82//82 159//159 160//160
f 124//124 159//159 82//82
f 145//145 159//159 124//124
f 79//79 145//145 124//124
f 165//165 145//145 79//79
f 134//134 165//165 79//79
f 163//163 165//165 134//134
f 83//83 163//163 134//134
f 83//83 161//161 163//163
f 87//87 161//161 83//83
f 87//87 162//162 161//161
f 88//88 162//162 87//87
f 148//148 162//162 88//88
f 80//80 148//148 88//88
f 133//133 148//148 80//80
f 147//147 148//148 133//133
f 81//81 147//147 133//133
f 86//86 147//147 81//81
f 86//86 164//164 147//147
f 123//123 164//164 86//86
f 78//78 164//164 123//123
f 78//78 166//166 164//164
# 300 faces, 0 coords texture

# End of File